<svg xmlns="http://www.w3.org/2000/svg" xmlns:xlink="http://www.w3.org/1999/xlink" width="303.122" height="651.974" viewBox="0 0 303.122 651.974">
  <defs>
    <clipPath id="clip-path">
      <path id="Path_220" data-name="Path 220" d="M286.444,20.924,342.565-.836l247,642.277-61.054,9.7Z" transform="translate(-223.245 0.839)" fill="none"/>
    </clipPath>
  </defs>
  <g id="Mask_Group_1" data-name="Mask Group 1" transform="translate(-63.199 -0.003)" clip-path="url(#clip-path)">
    <g id="Group_3486" data-name="Group 3486" transform="translate(-23.828 -154.765)">
      <g id="Group_3485" data-name="Group 3485" transform="translate(0 0)">
        <g id="Group_3478" data-name="Group 3478" transform="translate(175.903 407.522)" opacity="0.6">
          <g id="Group_3477" data-name="Group 3477" transform="translate(2.683 2.683)">
            <path id="Path_134" data-name="Path 134" d="M294.846,323.744l141.989,21.329L316.974,239.72Z" transform="translate(-294.846 -205.486)" fill="none" stroke="#636363" stroke-miterlimit="10" stroke-width="0.25"/>
            <path id="Path_135" data-name="Path 135" d="M311.865,247.625l73.376-34.235,46.483,139.588-5.9,102.973-34.386-76.726,40.286-26.247" transform="translate(-289.736 -213.39)" fill="none" stroke="#636363" stroke-miterlimit="10" stroke-width="0.25"/>
            <line id="Line_9" data-name="Line 9" x1="108.956" y1="95.054" transform="translate(95.505)" fill="none" stroke="#636363" stroke-miterlimit="10" stroke-width="0.25"/>
            <path id="Path_136" data-name="Path 136" d="M396.548,351.92l-101.7-47.576,59.568,117.338,42.134-69.761" transform="translate(-294.846 -186.085)" fill="none" stroke="#636363" stroke-miterlimit="10" stroke-width="0.25"/>
            <path id="Path_137" data-name="Path 137" d="M431.025,500.8,340.66,427.039,417.181,434,431.025,500.8,482.7,462.168,529.571,359.56l-66.522,16.619,22.5-89.682-62.473,44.534,39.969,45.149L417.181,434,482.7,462.168l-19.654-85.989" transform="translate(-281.092 -191.443)" fill="none" stroke="#636363" stroke-miterlimit="10" stroke-width="0.25" opacity="0.54"/>
            <line id="Line_10" data-name="Line 10" x1="44.018" y1="73.063" transform="translate(204.461 95.054)" fill="none" stroke="#636363" stroke-miterlimit="10" stroke-width="0.25"/>
          </g>
          <path id="Path_138" data-name="Path 138" d="M409.77,449.451a2.683,2.683,0,1,1-1.476,3.495A2.683,2.683,0,0,1,409.77,449.451Z" transform="translate(-258.164 -139.9)" fill="#bebebe" stroke="#bebebe" stroke-width="1" opacity="0.53"/>
          <path id="Path_139" data-name="Path 139" d="M399.123,398.081a2.682,2.682,0,1,1-1.476,3.494A2.682,2.682,0,0,1,399.123,398.081Z" transform="translate(-261.36 -155.321)" fill="#d1d1d1" stroke="#d1d1d1" stroke-width="1"/>
          <path id="Path_140" data-name="Path 140" d="M434.93,353.108a2.683,2.683,0,1,1-1.476,3.495A2.683,2.683,0,0,1,434.93,353.108Z" transform="translate(-250.611 -168.822)" fill="#fff" stroke="#636363" stroke-width="1"/>
          <path id="Path_141" data-name="Path 141" d="M485.563,340.825a2.683,2.683,0,1,1-1.476,3.495A2.683,2.683,0,0,1,485.563,340.825Z" transform="translate(-235.411 -172.51)" fill="#fff" stroke="#636363" stroke-width="1"/>
          <path id="Path_142" data-name="Path 142" d="M451.71,284.631a2.683,2.683,0,1,1-1.477,3.495A2.684,2.684,0,0,1,451.71,284.631Z" transform="translate(-245.574 -189.379)" fill="#fff" stroke="#636363" stroke-width="1"/>
          <path id="Path_143" data-name="Path 143" d="M403.66,318.883a2.683,2.683,0,1,1-1.476,3.494A2.682,2.682,0,0,1,403.66,318.883Z" transform="translate(-259.998 -179.097)" fill="#fff" stroke="#636363" stroke-width="1"/>
          <path id="Path_144" data-name="Path 144" d="M367.911,211.524a2.683,2.683,0,1,1-1.477,3.495A2.682,2.682,0,0,1,367.911,211.524Z" transform="translate(-270.731 -211.326)" fill="#fff" stroke="#636363" stroke-width="1"/>
          <path id="Path_145" data-name="Path 145" d="M311.476,237.855A2.682,2.682,0,1,1,310,241.35,2.683,2.683,0,0,1,311.476,237.855Z" transform="translate(-287.672 -203.422)" fill="#bdbdbd" stroke="#bdbdbd" stroke-width="1"/>
          <path id="Path_146" data-name="Path 146" d="M372.677,339.069a2.683,2.683,0,1,1-1.476,3.495A2.684,2.684,0,0,1,372.677,339.069Z" transform="translate(-269.3 -173.037)" fill="#bdbdbd" stroke="#bdbdbd" stroke-width="1"/>
          <path id="Path_147" data-name="Path 147" d="M340.27,392.724a2.683,2.683,0,1,1-1.476,3.495A2.682,2.682,0,0,1,340.27,392.724Z" transform="translate(-279.028 -156.93)" fill="#fff" stroke="#636363" stroke-width="1"/>
          <path id="Path_148" data-name="Path 148" d="M294.455,302.478a2.683,2.683,0,1,1-1.476,3.495A2.683,2.683,0,0,1,294.455,302.478Z" transform="translate(-292.782 -184.022)" fill="#fff" stroke="#636363" stroke-width="1"/>
          <path id="Path_149" data-name="Path 149" d="M450.106,419.442a2.682,2.682,0,1,1-1.477,3.494A2.682,2.682,0,0,1,450.106,419.442Z" transform="translate(-246.055 -148.909)" fill="#fff" stroke="#636363" stroke-width="1"/>
        </g>
        <g id="Group_3480" data-name="Group 3480" transform="translate(97.17 188.557)">
          <g id="Group_3479" data-name="Group 3479" transform="translate(2.683 2.684)">
            <path id="Path_150" data-name="Path 150" d="M458.183,155.336,316.194,176.665,436.054,71.312Z" transform="translate(-209.704 -37.077)" fill="none" stroke="#636363" stroke-miterlimit="10" stroke-width="0.25"/>
            <path id="Path_151" data-name="Path 151" d="M436.054,79.217,362.677,44.982,316.194,184.569l5.9,102.973,34.387-76.726-40.286-26.247" transform="translate(-209.704 -44.982)" fill="none" stroke="#636363" stroke-miterlimit="10" stroke-width="0.25"/>
            <line id="Line_11" data-name="Line 11" y1="95.054" x2="108.956" transform="translate(44.018)" fill="none" stroke="#636363" stroke-miterlimit="10" stroke-width="0.25"/>
            <path id="Path_152" data-name="Path 152" d="M347.178,183.512l101.7-47.576L389.313,253.273l-42.134-69.761" transform="translate(-200.402 -17.677)" fill="none" stroke="#636363" stroke-miterlimit="10" stroke-width="0.25"/>
            <path id="Path_153" data-name="Path 153" d="M332.837,332.388,423.2,258.631,346.681,265.6l-13.844,66.792L281.159,293.76,234.291,191.152l66.522,16.619-22.5-89.683,62.473,44.534-39.969,45.149L346.681,265.6,281.159,293.76l19.654-85.988" transform="translate(-234.291 -23.035)" fill="none" stroke="#636363" stroke-miterlimit="10" stroke-width="0.25"/>
            <line id="Line_12" data-name="Line 12" y1="73.063" x2="44.018" transform="translate(0 95.054)" fill="none" stroke="#636363" stroke-miterlimit="10" stroke-width="0.25"/>
          </g>
          <path id="Path_154" data-name="Path 154" d="M311.712,281.043a2.682,2.682,0,1,0,1.477,3.495A2.683,2.683,0,0,0,311.712,281.043Z" transform="translate(-209.474 28.508)" fill="#bdbdbd" stroke="#bdbdbd" stroke-width="1"/>
          <path id="Path_155" data-name="Path 155" d="M322.361,229.673a2.683,2.683,0,1,0,1.476,3.494A2.682,2.682,0,0,0,322.361,229.673Z" transform="translate(-206.278 13.087)" fill="#bdbdbd" stroke="#bdbdbd" stroke-width="1"/>
          <path id="Path_156" data-name="Path 156" d="M286.553,184.7a2.683,2.683,0,1,0,1.477,3.495A2.684,2.684,0,0,0,286.553,184.7Z" transform="translate(-217.027 -0.414)" fill="#bdbdbd" stroke="#bdbdbd" stroke-width="1"/>
          <path id="Path_157" data-name="Path 157" d="M235.92,172.417a2.682,2.682,0,1,0,1.477,3.495A2.683,2.683,0,0,0,235.92,172.417Z" transform="translate(-232.227 -4.101)" fill="#fff" stroke="#636363" stroke-width="1"/>
          <path id="Path_158" data-name="Path 158" d="M269.775,116.223a2.683,2.683,0,1,0,1.476,3.495A2.683,2.683,0,0,0,269.775,116.223Z" transform="translate(-222.064 -20.971)" fill="#bdbdbd" stroke="#bdbdbd" stroke-width="1"/>
          <path id="Path_159" data-name="Path 159" d="M317.822,150.475a2.682,2.682,0,1,0,1.477,3.494A2.682,2.682,0,0,0,317.822,150.475Z" transform="translate(-207.64 -10.688)" fill="#bdbdbd" stroke="#bdbdbd" stroke-width="1"/>
          <path id="Path_160" data-name="Path 160" d="M353.574,43.116a2.683,2.683,0,1,0,1.477,3.495A2.683,2.683,0,0,0,353.574,43.116Z" transform="translate(-196.907 -42.918)" fill="#fff" stroke="#636363" stroke-width="1"/>
          <path id="Path_161" data-name="Path 161" d="M410.009,69.446a2.683,2.683,0,1,0,1.476,3.495A2.684,2.684,0,0,0,410.009,69.446Z" transform="translate(-179.965 -35.013)" fill="#fff" stroke="#636363" stroke-width="1"/>
          <path id="Path_162" data-name="Path 162" d="M348.808,170.661a2.683,2.683,0,1,0,1.476,3.495A2.683,2.683,0,0,0,348.808,170.661Z" transform="translate(-198.338 -4.628)" fill="#fff" stroke="#636363" stroke-width="1"/>
          <path id="Path_163" data-name="Path 163" d="M381.214,224.316a2.683,2.683,0,1,0,1.476,3.494A2.681,2.681,0,0,0,381.214,224.316Z" transform="translate(-188.61 11.479)" fill="#fff" stroke="#636363" stroke-width="1"/>
          <path id="Path_164" data-name="Path 164" d="M427.027,134.07a2.682,2.682,0,1,0,1.477,3.495A2.681,2.681,0,0,0,427.027,134.07Z" transform="translate(-174.856 -15.613)" fill="#fff" stroke="#636363" stroke-width="1"/>
          <path id="Path_165" data-name="Path 165" d="M271.379,251.033a2.683,2.683,0,1,0,1.476,3.495A2.684,2.684,0,0,0,271.379,251.033Z" transform="translate(-221.582 19.5)" fill="#fff" stroke="#636363" stroke-width="1"/>
        </g>
        <g id="Group_3482" data-name="Group 3482" transform="translate(0 29.253)" opacity="0.6">
          <g id="Group_3481" data-name="Group 3481" transform="translate(2.683 2.683)">
            <path id="Path_166" data-name="Path 166" d="M278.7-77.541l3.774,143.532L192.6-65.872Z" transform="translate(-149.636 77.541)" fill="none" stroke="#636363" stroke-miterlimit="10" stroke-width="0.25"/>
            <path id="Path_167" data-name="Path 167" d="M202.523-68.566,159.556.063,292.4,63.3l102.92,6.76L323.382,26.53,292.4,63.3" transform="translate(-159.556 80.235)" fill="none" stroke="#636363" stroke-miterlimit="10" stroke-width="0.25"/>
            <line id="Line_13" data-name="Line 13" x1="80.99" y1="119.78" transform="translate(0 80.298)" fill="none" stroke="#636363" stroke-miterlimit="10" stroke-width="0.25"/>
            <path id="Path_168" data-name="Path 168" d="M293.582,29.224,258.824-77.541,367.98-4.046l-74.4,33.27" transform="translate(-129.756 77.541)" fill="none" stroke="#636363" stroke-miterlimit="10" stroke-width="0.25"/>
            <path id="Path_169" data-name="Path 169" d="M441.212,77.7l-62.131-98.72-2.462,76.8L441.212,77.7l-44.668,46.557L288.967,158.206,313.61,94.221l-91.764,11.348L273.7,49.022l39.912,45.2,63.008-38.439,19.925,68.479L313.61,94.221" transform="translate(-140.857 94.51)" fill="none" stroke="#636363" stroke-miterlimit="10" stroke-width="0.25"/>
            <line id="Line_14" data-name="Line 14" x1="67.12" y1="52.637" transform="translate(80.99 200.078)" fill="none" stroke="#636363" stroke-miterlimit="10" stroke-width="0.25"/>
          </g>
          <path id="Path_170" data-name="Path 170" d="M388.839,54.225a2.682,2.682,0,1,0,3.648-1.038A2.683,2.683,0,0,0,388.839,54.225Z" transform="translate(-88.144 119.367)" fill="#fff" stroke="#636363" stroke-width="1"/>
          <path id="Path_171" data-name="Path 171" d="M339.159,37.364a2.682,2.682,0,1,0,3.65-1.036A2.683,2.683,0,0,0,339.159,37.364Z" transform="translate(-103.058 114.306)" fill="#fff" stroke="#636363" stroke-width="1"/>
          <path id="Path_172" data-name="Path 172" d="M290.14,67.392a2.682,2.682,0,1,0,3.65-1.036A2.682,2.682,0,0,0,290.14,67.392Z" transform="translate(-117.774 123.32)" fill="#bdbdbd" stroke="#bdbdbd" stroke-width="1"/>
          <path id="Path_173" data-name="Path 173" d="M271.745,116.139a2.683,2.683,0,1,0,3.65-1.036A2.684,2.684,0,0,0,271.745,116.139Z" transform="translate(-123.296 137.954)" fill="#9b9b9b" stroke="#9b9b9b" stroke-width="1"/>
          <path id="Path_174" data-name="Path 174" d="M220.123,75.655a2.683,2.683,0,1,0,3.65-1.036A2.683,2.683,0,0,0,220.123,75.655Z" transform="translate(-138.793 125.801)" fill="#fff" stroke="#636363" stroke-width="1"/>
          <path id="Path_175" data-name="Path 175" d="M260,32.165a2.682,2.682,0,1,0,3.65-1.038A2.682,2.682,0,0,0,260,32.165Z" transform="translate(-126.821 112.745)" fill="#bdbdbd" stroke="#bdbdbd" stroke-width="1"/>
          <path id="Path_176" data-name="Path 176" d="M157.832-16.469a2.682,2.682,0,0,0,1.038,3.648,2.683,2.683,0,0,0,3.65-1.036,2.685,2.685,0,0,0-1.038-3.65A2.682,2.682,0,0,0,157.832-16.469Z" transform="translate(-157.493 98.144)" fill="#fff" stroke="#636363" stroke-width="1"/>
          <path id="Path_177" data-name="Path 177" d="M190.879-69.253a2.682,2.682,0,0,0,1.038,3.65,2.681,2.681,0,0,0,3.648-1.038,2.683,2.683,0,0,0-1.036-3.65A2.684,2.684,0,0,0,190.879-69.253Z" transform="translate(-147.572 82.299)" fill="#fff" stroke="#636363" stroke-width="1"/>
          <path id="Path_178" data-name="Path 178" d="M283.834,3.887a2.682,2.682,0,1,0,3.648-1.038A2.683,2.683,0,0,0,283.834,3.887Z" transform="translate(-119.667 104.256)" fill="#fff" stroke="#636363" stroke-width="1"/>
          <path id="Path_179" data-name="Path 179" d="M341.053-21.7a2.683,2.683,0,0,0,1.036,3.65,2.683,2.683,0,0,0,3.65-1.036,2.682,2.682,0,0,0-1.038-3.65A2.682,2.682,0,0,0,341.053-21.7Z" transform="translate(-102.489 96.574)" fill="#fff" stroke="#636363" stroke-width="1"/>
          <path id="Path_180" data-name="Path 180" d="M257.1-78.227a2.681,2.681,0,0,0,1.036,3.648,2.683,2.683,0,0,0,3.65-1.036,2.682,2.682,0,0,0-1.038-3.65A2.68,2.68,0,0,0,257.1-78.227Z" transform="translate(-127.692 79.605)" fill="#fff" stroke="#636363" stroke-width="1"/>
          <path id="Path_181" data-name="Path 181" d="M354.113,90.579a2.683,2.683,0,1,0,3.65-1.038A2.685,2.685,0,0,0,354.113,90.579Z" transform="translate(-98.568 130.281)" fill="#fff" stroke="#636363" stroke-width="1"/>
        </g>
        <g id="Group_3484" data-name="Group 3484" transform="translate(2.695)">
          <g id="Group_3483" data-name="Group 3483" transform="translate(1.818 2.683)">
            <path id="Path_182" data-name="Path 182" d="M604.636,460.664,479.07,530.3l159.236,10.466Z" transform="translate(-350.64 -400.553)" fill="none" stroke="#636363" stroke-miterlimit="10" stroke-width="0.25"/>
            <path id="Path_183" data-name="Path 183" d="M651.717,544.364l-37.3,71.864L492.482,533.9,434.4,448.668l74.026,39.868L492.482,533.9" transform="translate(-364.052 -404.154)" fill="none" stroke="#636363" stroke-miterlimit="10" stroke-width="0.25"/>
            <line id="Line_15" data-name="Line 15" x2="144.314" y2="8.947" transform="translate(106.047 203.127)" fill="none" stroke="#636363" stroke-miterlimit="10" stroke-width="0.25"/>
            <path id="Path_184" data-name="Path 184" d="M493.435,498.03l109.626-24.271L484.318,417.043l9.117,80.987" transform="translate(-349.065 -413.648)" fill="none" stroke="#636363" stroke-miterlimit="10" stroke-width="0.25"/>
            <path id="Path_185" data-name="Path 185" d="M515.471,417.827l-64.909,41.118-51.686-44.513-17.425,62.122,25.385,109.911,42.607-53.721,36.822,84.815,22.383-73.383-128.43-7.685,70.344-77.546-69.111,17.609,123.511,58.019" transform="translate(-380.219 -414.432)" fill="none" stroke="#777" stroke-miterlimit="10" stroke-width="0.25"/>
            <line id="Line_16" data-name="Line 16" x2="79.429" y2="31.094" transform="translate(26.617 172.034)" fill="none" stroke="#636363" stroke-miterlimit="10" stroke-width="0.25"/>
          </g>
          <path id="Path_186" data-name="Path 186" d="M397.578,416.406a2.682,2.682,0,1,1-.96-3.671A2.682,2.682,0,0,1,397.578,416.406Z" transform="translate(-374.787 -412.368)" fill="#ddd" stroke="#ddd" stroke-width="1"/>
          <path id="Path_187" data-name="Path 187" d="M437.33,450.642a2.683,2.683,0,1,1-.96-3.67A2.681,2.681,0,0,1,437.33,450.642Z" transform="translate(-362.853 -402.091)" fill="#bebebe" stroke="#bebebe" stroke-width="1"/>
          <path id="Path_188" data-name="Path 188" d="M436.354,508.12a2.683,2.683,0,1,1-.96-3.671A2.683,2.683,0,0,1,436.354,508.12Z" transform="translate(-363.146 -384.836)" fill="#fff" stroke="#636363" stroke-width="1"/>
          <path id="Path_189" data-name="Path 189" d="M403.7,548.719a2.682,2.682,0,1,1-.961-3.669A2.683,2.683,0,0,1,403.7,548.719Z" transform="translate(-372.949 -372.648)" fill="#fff" stroke="#636363" stroke-width="1"/>
          <path id="Path_190" data-name="Path 190" d="M464.79,572.634a2.683,2.683,0,1,1-.961-3.67A2.683,2.683,0,0,1,464.79,572.634Z" transform="translate(-354.609 -365.468)" fill="#d1d1d1" stroke="#d1d1d1" stroke-width="1"/>
          <path id="Path_191" data-name="Path 191" d="M482.005,516.194a2.683,2.683,0,1,1-.96-3.67A2.682,2.682,0,0,1,482.005,516.194Z" transform="translate(-349.441 -382.412)" fill="#fff" stroke="#636363" stroke-width="1"/>
          <path id="Path_192" data-name="Path 192" d="M575.783,579.515a2.683,2.683,0,1,1-.959-3.671A2.68,2.68,0,0,1,575.783,579.515Z" transform="translate(-321.289 -363.403)" fill="#fff" stroke="#636363" stroke-width="1"/>
          <path id="Path_194" data-name="Path 194" d="M494.265,481.305a2.683,2.683,0,1,1-.961-3.67A2.682,2.682,0,0,1,494.265,481.305Z" transform="translate(-345.761 -392.885)" fill="#fff" stroke="#636363" stroke-width="1"/>
          <path id="Path_196" data-name="Path 196" d="M578.579,462.638a2.683,2.683,0,1,1-.96-3.67A2.683,2.683,0,0,1,578.579,462.638Z" transform="translate(-320.45 -398.489)" fill="#fff" stroke="#636363" stroke-width="1"/>
          <path id="Path_197" data-name="Path 197" d="M383.893,464.782a2.683,2.683,0,1,1-.96-3.67A2.683,2.683,0,0,1,383.893,464.782Z" transform="translate(-378.895 -397.846)" fill="#bebebe" stroke="#bebebe" stroke-width="1"/>
        </g>
      </g>
    </g>
  </g>
</svg>
